<?xml version="1.0" encoding="UTF-8"?>
<svg id="Layer_1" data-name="Layer 1" xmlns="http://www.w3.org/2000/svg" version="1.1" viewBox="0 0 69 69">
  <defs>
    <style>
      .cls-1 {
        fill: none;
        stroke: #fff;
        stroke-linecap: round;
        stroke-linejoin: round;
        stroke-width: 3.5px;
      }
    </style>
  </defs>
  <path class="cls-1" d="M34.4,13.7l-.8-.8c-2.7-2.7-7.1-2.7-9.8,0l-13.1,13.1c-2.7,2.7-2.7,7.1,0,9.8l3.9,3.9"/>
  <path class="cls-1" d="M28.9,19.7l7.6,7.6c1.6,1.6,4.1,1.6,5.7,0,1.6-1.6,1.6-4.1,0-5.7l-7.6-7.6"/>
  <path class="cls-1" d="M35.4,13.3c2.7-2.7,7.1-2.7,9.8,0l13.1,13.1c2.7,2.7,2.7,7.1,0,9.8l-14.6,14.6"/>
  <path class="cls-1" d="M23.5,36.6l-3.1,3.1c-1.6,1.6-4.1,1.6-5.7,0h0c-1.6-1.6-1.6-4.1,0-5.7l14.3-14.3"/>
  <path class="cls-1" d="M26.1,45.5c-1.6,1.6-4.1,1.6-5.7,0h0c-1.6-1.6-1.6-4.1,0-5.7"/>
  <path class="cls-1" d="M34.9,48.1l-3.1,3.1c-1.6,1.6-4.1,1.6-5.7,0h0c-1.6-1.6-1.6-4.1,0-5.7l3.1-3.1"/>
  <path class="cls-1" d="M45.1,49.3l-7.6,7.6c-1.6,1.6-4.1,1.6-5.7,0h0c-1.6-1.6-1.6-4.1,0-5.7l3.1-3.1"/>
</svg>