<?xml version="1.0" encoding="UTF-8"?>
<svg id="Layer_1" data-name="Layer 1" xmlns="http://www.w3.org/2000/svg" version="1.1" viewBox="0 0 69 69">
  <defs>
    <style>
      .cls-1 {
        fill: none;
        stroke: #fff;
        stroke-linecap: round;
        stroke-linejoin: round;
        stroke-width: 3.3px;
      }
    </style>
  </defs>
  <path class="cls-1" d="M9.8,11.4v47.8h47.8"/>
  <path class="cls-1" d="M21.3,30.8h-1.7c-1.8,0-3.3,1.5-3.3,3.3v15.2c0,1.8,1.5,3.3,3.3,3.3h1.7c1.8,0,3.3-1.5,3.3-3.3v-15.2c0-1.8-1.5-3.3-3.3-3.3Z"/>
  <path class="cls-1" d="M51,41.1h-1.6c-1.8,0-3.3,1.5-3.3,3.3v4.9c0,1.8,1.5,3.3,3.3,3.3h1.6c1.8,0,3.3-1.5,3.3-3.3v-4.9c0-1.8-1.5-3.3-3.3-3.3Z"/>
  <path class="cls-1" d="M36.1,18h-1.7c-1.8,0-3.3,1.5-3.3,3.3v28c0,1.8,1.5,3.3,3.3,3.3h1.7c1.8,0,3.3-1.5,3.3-3.3v-28c0-1.8-1.5-3.3-3.3-3.3Z"/>
</svg>